<?xml version="1.0" ?><svg style="enable-background:new 0 0 48 48;" version="1.1" viewBox="0 0 48 48" xml:space="preserve" xmlns="http://www.w3.org/2000/svg" xmlns:xlink="http://www.w3.org/1999/xlink"><g id="Icons"><g><path d="M39.10131,23.25579l-4.07996-4.08002l-9.82001-9.81995c-0.33002-0.33002-0.76001-0.5-1.20001-0.5    c-0.42999,0-0.87,0.16998-1.20001,0.5l-9.82001,9.82996l-4.07001,4.07001c-0.66998,0.66003-0.66998,1.73004,0,2.40002    c0.66003,0.65997,1.73004,0.65997,2.40002,0l2.09998-2.10004l2.49005,15.58002h16.19l2.5-15.58997l2.10999,2.10999    c0.65997,0.65997,1.72998,0.65997,2.39996,0C39.76135,24.98583,39.76135,23.91582,39.10131,23.25579z M24.00134,34.64581    c-0.54999,0-0.98999-0.45001-0.98999-1s0.44-0.98999,0.98999-0.98999s0.98999,0.44,0.98999,0.98999    S24.55133,34.64581,24.00134,34.64581z M24.00134,29.56579c-2.03998,0-3.69-1.64996-3.69-3.69c0-2.03998,1.65002-3.69,3.69-3.69    s3.69,1.65002,3.69,3.69C27.69134,27.91582,26.04132,29.56579,24.00134,29.56579z" style="fill:#4AA0EC;"/><line style="fill:none;stroke:#303030;stroke-width:0.7;stroke-linecap:round;stroke-linejoin:round;stroke-miterlimit:10;" x1="22.30467" x2="16.68426" y1="13.21182" y2="18.83223"/><path d="    M25.19904,9.35502c-0.32982-0.32982-0.76042-0.49473-1.20018-0.49473c-0.4306,0-0.87036,0.16491-1.20018,0.49473l-9.82134,9.83051    l-4.0678,4.06779c-0.6688,0.65964-0.6688,1.73156,0,2.40037c0.65964,0.65964,1.73156,0.65964,2.40037,0l2.09803-2.09803    l2.49649,15.58405h16.18845l2.49691-15.59322l2.10719,2.10719c0.65965,0.65964,1.73156,0.65964,2.40037,0    c0.65964-0.6688,0.65964-1.74072,0-2.40037l-4.07696-4.07696L25.19904,9.35502c-0.32982-0.32982-0.76042-0.49473-1.20018-0.49473    c-0.4306,0-0.87036,0.16491-1.20018,0.49473" style="fill:none;stroke:#303030;stroke-width:0.7;stroke-linecap:round;stroke-linejoin:round;stroke-miterlimit:10;"/><circle cx="24.00082" cy="25.87584" r="3.68949" style="fill:none;stroke:#303030;stroke-width:0.7;stroke-linecap:round;stroke-linejoin:round;stroke-miterlimit:10;"/><circle cx="24.00082" cy="33.64859" r="0.99337" style="fill:none;stroke:#303030;stroke-width:0.7;stroke-linecap:round;stroke-linejoin:round;stroke-miterlimit:10;"/><line style="fill:none;stroke:#303030;stroke-width:0.7;stroke-linecap:round;stroke-linejoin:round;stroke-miterlimit:10;" x1="15.69364" x2="15.0282" y1="19.80091" y2="20.56142"/></g></g></svg>